<?xml version="1.0" standalone="no"?><!DOCTYPE svg PUBLIC "-//W3C//DTD SVG 1.1//EN" "http://www.w3.org/Graphics/SVG/1.1/DTD/svg11.dtd"><svg class="icon" style="" viewBox="0 0 1024 1024" version="1.1" xmlns="http://www.w3.org/2000/svg" p-id="12448" xmlns:xlink="http://www.w3.org/1999/xlink" width="200" height="200"><defs><style type="text/css"><![CDATA[

]]></style></defs><path d="M33.381783 249.485121l134.016273 262.514879L33.381783 774.513856l957.23541 0L990.617194 249.485121 33.381783 249.485121zM508.753561 384.665917l0 248.872161c0 23.573905-8.644891 31.057343-36.115546 31.057343-9.774621 0-20.307512-0.369414-35.356252-1.87265-0.75827-9.727549-1.888-14.9679-5.275143-24.695448 12.791327 2.623757 26.711362 4.107551 39.890522 4.107551 10.144034 0 13.532201-2.24411 13.532201-9.347902l0-248.121054-21.065781 0c-13.921058 0-23.694655 0.38067-33.857109 1.494027l0-25.077142c10.532891 1.503237 19.936051 2.24411 33.857109 2.24411l66.214051 0c13.549597 0 22.194488-0.741897 30.839379-1.863441l0 24.696472c-7.515161-1.113357-17.289782-1.494027-30.839379-1.494027L508.753561 384.665917zM674.667312 498.436076l0 35.546587c0 31.809473-1.12973 44.913932-4.886287 57.257052-6.404873 20.957311-22.212908 40.794102-43.278689 53.897537-16.548908 10.480702-30.839379 16.842597-68.841901 29.937846-6.016017-10.851139-9.032724-14.226003-16.919345-20.959358 39.873126-10.107195 60.938907-19.084661 81.246419-34.05256 13.179161-9.729595 21.083178-21.329794 25.212218-37.058011 2.62785-9.719362 3.75758-23.944342 3.75758-49.021483L650.957307 498.05643c0-14.597463-0.740874-25.076118-2.258437-33.682124l28.228925 0C675.408185 471.866954 674.667312 482.718093 674.667312 498.436076zM758.558977 674.703639c-28.210505-25.826202-51.164287-43.410696-81.262792-61.002352l14.290471-17.96414c39.132252 23.573905 57.181327 36.297694 82.393545 57.257052L758.558977 674.703639zM773.980201 374.565884c-10.903328-1.502213-19.936051-1.87265-34.985816-1.87265l-66.584488 0c-4.51585 13.465686-9.403161 26.948769-17.677615 46.026266l60.567447-0.379647c19.936051 0 26.324552-0.37146 36.857443-1.113357-1.12973 8.606005-1.500167 14.9679-1.500167 26.189476l0 114.521267c0 16.471137 0.75827 26.198685 2.258437 37.799908l-27.841092 0c1.500167-11.602246 2.258437-21.329794 2.258437-37.799908L727.332788 438.556291 598.290807 438.556291l0 119.760594c0 16.09149 0.75827 25.818015 2.258437 37.420261l-27.470655 0c1.517563-11.602246 2.258437-21.329794 2.258437-37.420261L575.337025 445.669292c0-11.602246-0.369414-20.587897-1.499144-28.072359 10.532891 0.74292 18.807345 1.122567 33.115212 1.122567l23.324218 0c8.274454-17.591657 13.532201-31.809473 16.919345-46.026266l-44.019563 0c-18.419512 0-26.712385 0.370437-35.357276 1.493004l0-24.696472c10.903328 1.864464 18.437931 2.24411 36.115546 2.24411l133.927245 0c17.677615 0 27.840068-0.751107 36.115546-2.24411L773.978155 374.565884z" p-id="12449" class="selected" fill="#FF4A01"></path></svg>